<?xml version="1.0" encoding="UTF-8" standalone="no"?>
<svg
   xmlns:dc="http://purl.org/dc/elements/1.1/"
   xmlns:cc="http://creativecommons.org/ns#"
   xmlns:rdf="http://www.w3.org/1999/02/22-rdf-syntax-ns#"
   xmlns:svg="http://www.w3.org/2000/svg"
   xmlns="http://www.w3.org/2000/svg"
   xmlns:sodipodi="http://sodipodi.sourceforge.net/DTD/sodipodi-0.dtd"
   xmlns:inkscape="http://www.inkscape.org/namespaces/inkscape"
   version="1.0"
   width="4cm"
   height="2cm"
   viewBox="0 0 151.18111 75.590553"
   preserveAspectRatio="xMidYMid meet"
   id="svg4574"
   sodipodi:docname="arrow_right.svg"
   inkscape:version="0.92.3 (2405546, 2018-03-11)">
  <defs
     id="defs4578" />
  <sodipodi:namedview
     pagecolor="#ffffff"
     bordercolor="#666666"
     borderopacity="1"
     objecttolerance="10"
     gridtolerance="10"
     guidetolerance="10"
     inkscape:pageopacity="0"
     inkscape:pageshadow="2"
     inkscape:window-width="1920"
     inkscape:window-height="1001"
     id="namedview4576"
     showgrid="false"
     inkscape:zoom="0.62433862"
     inkscape:cx="996.30104"
     inkscape:cy="487.15615"
     inkscape:window-x="-9"
     inkscape:window-y="-9"
     inkscape:window-maximized="1"
     inkscape:current-layer="svg4574"
     units="cm" />
  <metadata
     id="metadata4568">
Created by potrace 1.15, written by Peter Selinger 2001-2017
<rdf:RDF>
  <cc:Work
     rdf:about="">
    <dc:format>image/svg+xml</dc:format>
    <dc:type
       rdf:resource="http://purl.org/dc/dcmitype/StillImage" />
    <dc:title></dc:title>
  </cc:Work>
</rdf:RDF>
</metadata>
  <g
     id="g4609"
     transform="matrix(0.12063855,0,0,-0.10491186,-0.409916,117.83587)">
    <g
       style="fill:#000000;stroke:none"
       id="g4572"
       transform="matrix(0.07890736,0,0,-0.06415499,280.2104,1130.1249)">
      <path
         inkscape:connector-curvature="0"
         id="path4570"
         d="m 5685,11325 c -43,-20 -59,-35 -81,-75 -18,-34 -19,-78 -22,-1322 l -2,-1288 H 3577 c -1886,0 -2004,-1 -2036,-18 -19,-9 -48,-34 -65,-55 l -31,-39 V 5752 c 0,-2625 1,-2779 17,-2809 10,-18 35,-45 55,-60 l 36,-28 2034,-3 2033,-2 V 1557 c 0,-907 3,-1304 11,-1332 31,-110 160,-152 253,-84 31,23 1666,1406 4826,4083 882,747 1612,1369 1622,1381 10,12 23,42 29,66 26,98 194,-53 -2157,1940 -1171,993 -2628,2228 -3237,2744 -609,517 -1126,950 -1149,963 -47,25 -90,28 -133,7 z" />
    </g>
    <rect
       ry="0"
       style="stroke-width:0.75"
       y="575.07703"
       x="3.3977079"
       height="372.04904"
       width="407.72498"
       id="rect4582" />
  </g>
</svg>
