<?xml version="1.0" encoding="UTF-8" standalone="no"?>
<!-- Created with Inkscape (http://www.inkscape.org/) -->

<svg
   xmlns:dc="http://purl.org/dc/elements/1.1/"
   xmlns:cc="http://creativecommons.org/ns#"
   xmlns:rdf="http://www.w3.org/1999/02/22-rdf-syntax-ns#"
   xmlns:svg="http://www.w3.org/2000/svg"
   xmlns="http://www.w3.org/2000/svg"
   xmlns:sodipodi="http://sodipodi.sourceforge.net/DTD/sodipodi-0.dtd"
   xmlns:inkscape="http://www.inkscape.org/namespaces/inkscape"
   width="798.13007mm"
   height="43.004097mm"
   viewBox="0 0 798.13004 43.004097"
   version="1.1"
   id="svg868"
   inkscape:version="0.92.3 (2405546, 2018-03-11)"
   sodipodi:docname="llrll.svg">
  <defs
     id="defs862" />
  <sodipodi:namedview
     id="base"
     pagecolor="#ffffff"
     bordercolor="#666666"
     borderopacity="1.0"
     inkscape:pageopacity="0.0"
     inkscape:pageshadow="2"
     inkscape:zoom="0.35"
     inkscape:cx="965.87754"
     inkscape:cy="288.78833"
     inkscape:document-units="mm"
     inkscape:current-layer="layer1"
     showgrid="false"
     fit-margin-top="0"
     fit-margin-left="0"
     fit-margin-right="0"
     fit-margin-bottom="0"
     inkscape:window-width="1920"
     inkscape:window-height="1001"
     inkscape:window-x="-9"
     inkscape:window-y="-9"
     inkscape:window-maximized="1" />
  <metadata
     id="metadata865">
    <rdf:RDF>
      <cc:Work
         rdf:about="">
        <dc:format>image/svg+xml</dc:format>
        <dc:type
           rdf:resource="http://purl.org/dc/dcmitype/StillImage" />
        <dc:title />
      </cc:Work>
    </rdf:RDF>
  </metadata>
  <g
     inkscape:label="Ebene 1"
     inkscape:groupmode="layer"
     id="layer1"
     transform="translate(615.85276,-215.77777)">
    <path
       style="fill:#000000;fill-opacity:1;fill-rule:nonzero;stroke:#000000;stroke-width:3.23882389;stroke-miterlimit:4;stroke-dasharray:none;stroke-opacity:1"
       d="m 123.67149,254.37807 c -13.91079,-4.04022 -56.189673,-16.13583 -58.000403,-16.59338 -0.85222,-0.21536 -1.47886,-0.45691 -1.3925,-0.53678 0.0864,-0.0799 2.13331,-0.69364 4.54882,-1.36394 9.52034,-2.6419 59.071513,-16.8553 64.323963,-18.45087 0.22207,-0.0675 0.37492,-0.001 0.37492,0.16226 0,0.15189 -3.92695,4.20742 -8.72654,9.0123 l -8.72657,8.73614 h 32.29237 32.29237 v 1.92811 1.92811 h -32.28769 -32.28766 l 8.82896,8.85303 c 4.85596,4.86916 8.82899,8.9182 8.82899,8.99786 0,0.2451 -0.26014,0.17605 -10.06903,-2.67284 z"
       id="path851"
       inkscape:connector-curvature="0" />
    <path
       style="fill:#000000;fill-opacity:1;fill-rule:nonzero;stroke:#000000;stroke-width:3.23882389;stroke-miterlimit:4;stroke-dasharray:none;stroke-opacity:1"
       d="m -45.954511,254.37807 c -13.91079,-4.04022 -56.189669,-16.13583 -58.000399,-16.59338 -0.85222,-0.21536 -1.47886,-0.45691 -1.3925,-0.53678 0.0864,-0.0799 2.13331,-0.69364 4.54882,-1.36394 9.520339,-2.6419 59.071509,-16.8553 64.323959,-18.45087 0.22207,-0.0675 0.37492,-0.001 0.37492,0.16226 0,0.15189 -3.92695,4.20742 -8.72654,9.0123 l -8.72657,8.73614 h 32.29237 32.29236 v 1.92811 1.92811 h -32.28768 -32.28766 l 8.82896,8.85303 c 4.85596,4.86916 8.82899,8.9182 8.82899,8.99786 0,0.2451 -0.26014,0.17605 -10.06903,-2.67284 z"
       id="path1424"
       inkscape:connector-curvature="0" />
    <path
       style="fill:#000000;fill-opacity:1;fill-rule:nonzero;stroke:#000000;stroke-width:3.239;stroke-miterlimit:4;stroke-dasharray:none;stroke-opacity:1"
       d="m -217.99495,220.16985 c 13.91079,4.04022 56.18967,16.13583 58.0004,16.59338 0.85222,0.21536 1.47886,0.45691 1.3925,0.53678 -0.0864,0.0799 -2.13331,0.69364 -4.54882,1.36394 -9.52034,2.6419 -59.07151,16.8553 -64.32396,18.45087 -0.22207,0.0675 -0.37492,10e-4 -0.37492,-0.16226 0,-0.15189 3.92695,-4.20742 8.72654,-9.0123 l 8.72657,-8.73614 h -32.29237 -32.29236 v -1.92811 -1.92811 h 32.28768 32.28766 l -8.82896,-8.85303 c -4.85596,-4.86916 -8.82899,-8.9182 -8.82899,-8.99786 0,-0.2451 0.26014,-0.17605 10.06903,2.67284 z"
       id="path1428"
       inkscape:connector-curvature="0" />
    <path
       inkscape:connector-curvature="0"
       id="path1430"
       d="m -385.20651,254.37807 c -13.91079,-4.04022 -56.18967,-16.13583 -58.0004,-16.59338 -0.85222,-0.21536 -1.47886,-0.45691 -1.3925,-0.53678 0.0864,-0.0799 2.13331,-0.69364 4.54882,-1.36394 9.52034,-2.6419 59.07151,-16.8553 64.32396,-18.45087 0.22207,-0.0675 0.37492,-0.001 0.37492,0.16226 0,0.15189 -3.92695,4.20742 -8.72654,9.0123 l -8.72657,8.73614 h 32.29237 32.29236 v 1.92811 1.92811 h -32.28768 -32.28766 l 8.82896,8.85303 c 4.85596,4.86916 8.82899,8.9182 8.82899,8.99786 0,0.2451 -0.26014,0.17605 -10.06903,-2.67284 z"
       style="fill:#000000;fill-opacity:1;fill-rule:nonzero;stroke:#000000;stroke-width:3.23882389;stroke-miterlimit:4;stroke-dasharray:none;stroke-opacity:1" />
    <path
       style="fill:#000000;fill-opacity:1;fill-rule:nonzero;stroke:#000000;stroke-width:3.23882389;stroke-miterlimit:4;stroke-dasharray:none;stroke-opacity:1"
       d="m -554.83251,254.37807 c -13.91079,-4.04022 -56.18967,-16.13583 -58.0004,-16.59338 -0.85222,-0.21536 -1.47886,-0.45691 -1.3925,-0.53678 0.0864,-0.0799 2.13331,-0.69364 4.54882,-1.36394 9.52034,-2.6419 59.07151,-16.8553 64.32396,-18.45087 0.22207,-0.0675 0.37492,-0.001 0.37492,0.16226 0,0.15189 -3.92695,4.20742 -8.72654,9.0123 l -8.72657,8.73614 h 32.29237 32.29236 v 1.92811 1.92811 h -32.28768 -32.28766 l 8.82896,8.85303 c 4.85596,4.86916 8.82899,8.9182 8.82899,8.99786 0,0.2451 -0.26014,0.17605 -10.06903,-2.67284 z"
       id="path1432"
       inkscape:connector-curvature="0" />
  </g>
</svg>
